# xmcd CD database file
#
# Track frame offsets:
#	150
#	29477
#	53308
#	66009
#	91479
#	146057
#	177777
#	216364
#
# Disc length: 3405 seconds
#
# Revision: 1
# Processed by: cddbd v1.5.1PL0 Copyright (c) Steve Scherf et al.
# Submitted via: CDex 1.51
#
DISCID=6d0d4b08
DTITLE=Genesis - Ultimate Pittsburgh(Live at Syria Mosque Stanley Theatre,Pittsburgh,USA 13th April 1976) -Disc 1-
DYEAR=1976
DGENRE=Progressive Rock
TTITLE0=Dance On A Volcano
TTITLE1=The Lamb Lies Down On Broadway
TTITLE2=Fly On A Windshield
TTITLE3=Carpet Crawlers
TTITLE4=Cinema Show
TTITLE5=Robbery, Assault and Battery
TTITLE6=White Mountain
TTITLE7=Firth Of Fifth
EXTD=YEAR: 1976
EXTT0=
EXTT1=
EXTT2=
EXTT3=
EXTT4=
EXTT5=
EXTT6=
EXTT7=
PLAYORDER=
